<svg width="30" height="30" viewBox="0 0 30 30" xmlns="http://www.w3.org/2000/svg">
            <rect width="100%" height="100%" fill="#234"/>
            <!-- Pinguin Pixel Art -->
                <rect x="14" y="10" width="1" height="1" fill="#4b4c4f"/>
                <rect x="15" y="10" width="1" height="1" fill="#4b4c4f"/>
                <rect x="16" y="10" width="1" height="1" fill="#4b4c4f"/>
                <rect x="17" y="10" width="1" height="1" fill="#4b4c4f"/>
  
                <rect x="13" y="11" width="1" height="1" fill="#4b4c4f"/>
                <rect x="14" y="11" width="1" height="1" fill="#4b4c4f"/>
                <rect x="15" y="11" width="1" height="1" fill="#4b4c4f"/>
                <rect x="16" y="11" width="1" height="1" fill="#4b4c4f"/>
                <rect x="17" y="11" width="1" height="1" fill="#4b4c4f"/>
                <rect x="18" y="11" width="1" height="1" fill="#4b4c4f"/>
  
                <rect x="13" y="12" width="1" height="1" fill="#4b4c4f"/>
                <rect x="14" y="12" width="1" height="1" fill="#4b4c4f"/>
                <rect x="15" y="12" width="1" height="1" fill="#4b4c4f"/>
                <rect x="16" y="12" width="1" height="1" fill="#4b4c4f"/>
                <rect x="17" y="12" width="1" height="1" fill="#4b4c4f"/>
                <rect x="18" y="12" width="1" height="1" fill="#4b4c4f"/>
  
                <rect x="13" y="13" width="1" height="1" fill="#4b4c4f"/>
                <rect x="14" y="13" width="1" height="1" fill="#4b4c4f"/>
                <rect x="15" y="13" width="1" height="1" fill="#4b4c4f"/>
                <rect x="16" y="13" width="1" height="1" fill="#4b4c4f"/>
                <rect x="17" y="13" width="1" height="1" fill="#4b4c4f"/>
                <rect x="18" y="13" width="1" height="1" fill="#4b4c4f"/>

                <rect x="12" y="14" width="1" height="1" fill="#4b4c4f"/>
                <rect x="13" y="14" width="1" height="1" fill="#4b4c4f"/>
                <rect x="14" y="14" width="1" height="1" fill="#4b4c4f"/>
                <rect x="15" y="14" width="1" height="1" fill="#4b4c4f"/>
                <rect x="16" y="14" width="1" height="1" fill="#4b4c4f"/>
                <rect x="17" y="14" width="1" height="1" fill="#4b4c4f"/>
                <rect x="18" y="14" width="1" height="1" fill="#4b4c4f"/>
                <rect x="19" y="14" width="1" height="1" fill="#4b4c4f"/>

                <rect x="11" y="15" width="1" height="1" fill="#4b4c4f"/>
                <rect x="12" y="15" width="1" height="1" fill="#4b4c4f"/>
                <rect x="13" y="15" width="1" height="1" fill="#4b4c4f"/>
                <rect x="14" y="15" width="1" height="1" fill="#4b4c4f"/>
                <rect x="15" y="15" width="1" height="1" fill="#4b4c4f"/>
                <rect x="16" y="15" width="1" height="1" fill="#4b4c4f"/>
                <rect x="17" y="15" width="1" height="1" fill="#4b4c4f"/>
                <rect x="18" y="15" width="1" height="1" fill="#4b4c4f"/>
                <rect x="19" y="15" width="1" height="1" fill="#4b4c4f"/>
                <rect x="20" y="15" width="1" height="1" fill="#4b4c4f"/>

                <rect x="10" y="16" width="1" height="1" fill="#4b4c4f"/>
                <rect x="11" y="16" width="1" height="1" fill="#4b4c4f"/>
                <rect x="12" y="16" width="1" height="1" fill="#4b4c4f"/>
                <rect x="13" y="16" width="1" height="1" fill="#4b4c4f"/>
                <rect x="14" y="16" width="1" height="1" fill="#4b4c4f"/>
                <rect x="15" y="16" width="1" height="1" fill="#4b4c4f"/>
                <rect x="16" y="16" width="1" height="1" fill="#4b4c4f"/>
                <rect x="17" y="16" width="1" height="1" fill="#4b4c4f"/>
                <rect x="18" y="16" width="1" height="1" fill="#4b4c4f"/>
                <rect x="19" y="16" width="1" height="1" fill="#4b4c4f"/>
                <rect x="20" y="16" width="1" height="1" fill="#4b4c4f"/>
                <rect x="21" y="16" width="1" height="1" fill="#4b4c4f"/>
  
                <rect x="10" y="17" width="1" height="1" fill="#4b4c4f"/>
                <rect x="11" y="17" width="1" height="1" fill="#4b4c4f"/>
                <rect x="12" y="17" width="1" height="1" fill="#4b4c4f"/>
                <rect x="13" y="17" width="1" height="1" fill="#4b4c4f"/>
                <rect x="14" y="17" width="1" height="1" fill="#4b4c4f"/>
                <rect x="15" y="17" width="1" height="1" fill="#4b4c4f"/>
                <rect x="16" y="17" width="1" height="1" fill="#4b4c4f"/>
                <rect x="17" y="17" width="1" height="1" fill="#4b4c4f"/>
                <rect x="18" y="17" width="1" height="1" fill="#4b4c4f"/>
                <rect x="19" y="17" width="1" height="1" fill="#4b4c4f"/>
                <rect x="20" y="17" width="1" height="1" fill="#4b4c4f"/>
                <rect x="21" y="17" width="1" height="1" fill="#4b4c4f"/>

                <rect x="11" y="18" width="1" height="1" fill="#4b4c4f"/>
                <rect x="12" y="18" width="1" height="1" fill="#4b4c4f"/>
                <rect x="13" y="18" width="1" height="1" fill="#4b4c4f"/>
                <rect x="14" y="18" width="1" height="1" fill="#4b4c4f"/>
                <rect x="15" y="18" width="1" height="1" fill="#4b4c4f"/>
                <rect x="16" y="18" width="1" height="1" fill="#4b4c4f"/>
                <rect x="17" y="18" width="1" height="1" fill="#4b4c4f"/>
                <rect x="18" y="18" width="1" height="1" fill="#4b4c4f"/>
                <rect x="19" y="18" width="1" height="1" fill="#4b4c4f"/>
                <rect x="20" y="18" width="1" height="1" fill="#4b4c4f"/>
  
                <rect x="11" y="19" width="1" height="1" fill="#4b4c4f"/>
                <rect x="12" y="19" width="1" height="1" fill="#4b4c4f"/>
                <rect x="13" y="19" width="1" height="1" fill="#4b4c4f"/>
                <rect x="14" y="19" width="1" height="1" fill="#4b4c4f"/>
                <rect x="15" y="19" width="1" height="1" fill="#4b4c4f"/>
                <rect x="16" y="19" width="1" height="1" fill="#4b4c4f"/>
                <rect x="17" y="19" width="1" height="1" fill="#4b4c4f"/>
                <rect x="18" y="19" width="1" height="1" fill="#4b4c4f"/>
                <rect x="19" y="19" width="1" height="1" fill="#4b4c4f"/>
                <rect x="20" y="19" width="1" height="1" fill="#4b4c4f"/>
  
                <rect x="12" y="20" width="1" height="1" fill="#4b4c4f"/>
                <rect x="13" y="20" width="1" height="1" fill="#4b4c4f"/>
                <rect x="14" y="20" width="1" height="1" fill="#4b4c4f"/>
                <rect x="15" y="20" width="1" height="1" fill="#4b4c4f"/>
                <rect x="16" y="20" width="1" height="1" fill="#4b4c4f"/>
                <rect x="17" y="20" width="1" height="1" fill="#4b4c4f"/>
                <rect x="18" y="20" width="1" height="1" fill="#4b4c4f"/>
                <rect x="19" y="20" width="1" height="1" fill="#4b4c4f"/>
  
                <rect x="12" y="21" width="1" height="1" fill="#4b4c4f"/>
                <rect x="13" y="21" width="1" height="1" fill="#4b4c4f"/>
                <rect x="14" y="21" width="1" height="1" fill="#4b4c4f"/>
                <rect x="15" y="21" width="1" height="1" fill="#4b4c4f"/>
                <rect x="16" y="21" width="1" height="1" fill="#4b4c4f"/>
                <rect x="17" y="21" width="1" height="1" fill="#4b4c4f"/>
                <rect x="18" y="21" width="1" height="1" fill="#4b4c4f"/>
                <rect x="19" y="21" width="1" height="1" fill="#4b4c4f"/>
  
                <!-- Front Skin -->
                <rect x="14" y="15" width="1" height="1" fill="#FFFFFF"/>
                <rect x="15" y="15" width="1" height="1" fill="#FFFFFF"/>
                <rect x="16" y="15" width="1" height="1" fill="#FFFFFF"/>
                <rect x="17" y="15" width="1" height="1" fill="#FFFFFF"/>

                <rect x="13" y="16" width="1" height="1" fill="#FFFFFF"/>
                <rect x="14" y="16" width="1" height="1" fill="#FFFFFF"/>
                <rect x="15" y="16" width="1" height="1" fill="#FFFFFF"/>
                <rect x="16" y="16" width="1" height="1" fill="#FFFFFF"/>
                <rect x="17" y="16" width="1" height="1" fill="#FFFFFF"/>
                <rect x="18" y="16" width="1" height="1" fill="#FFFFFF"/>
  
                <rect x="12" y="17" width="1" height="1" fill="#FFFFFF"/>
                <rect x="13" y="17" width="1" height="1" fill="#FFFFFF"/>
                <rect x="14" y="17" width="1" height="1" fill="#FFFFFF"/>
                <rect x="15" y="17" width="1" height="1" fill="#FFFFFF"/>
                <rect x="16" y="17" width="1" height="1" fill="#FFFFFF"/>
                <rect x="17" y="17" width="1" height="1" fill="#FFFFFF"/>
                <rect x="18" y="17" width="1" height="1" fill="#FFFFFF"/>
                <rect x="19" y="17" width="1" height="1" fill="#FFFFFF"/>

                <rect x="12" y="18" width="1" height="1" fill="#FFFFFF"/>
                <rect x="13" y="18" width="1" height="1" fill="#FFFFFF"/>
                <rect x="14" y="18" width="1" height="1" fill="#FFFFFF"/>
                <rect x="15" y="18" width="1" height="1" fill="#FFFFFF"/>
                <rect x="16" y="18" width="1" height="1" fill="#FFFFFF"/>
                <rect x="17" y="18" width="1" height="1" fill="#FFFFFF"/>
                <rect x="18" y="18" width="1" height="1" fill="#FFFFFF"/>
                <rect x="19" y="18" width="1" height="1" fill="#FFFFFF"/>
  
                <rect x="13" y="19" width="1" height="1" fill="#FFFFFF"/>
                <rect x="14" y="19" width="1" height="1" fill="#FFFFFF"/>
                <rect x="15" y="19" width="1" height="1" fill="#FFFFFF"/>
                <rect x="16" y="19" width="1" height="1" fill="#FFFFFF"/>
                <rect x="17" y="19" width="1" height="1" fill="#FFFFFF"/>
                <rect x="18" y="19" width="1" height="1" fill="#FFFFFF"/>
  
                <rect x="14" y="20" width="1" height="1" fill="#FFFFFF"/>
                <rect x="15" y="20" width="1" height="1" fill="#FFFFFF"/>
                <rect x="16" y="20" width="1" height="1" fill="#FFFFFF"/>
                <rect x="17" y="20" width="1" height="1" fill="#FFFFFF"/>
    
                <!-- Eye -->
                <rect x="14" y="12" width="1" height="1" fill="#FFFFFF"/>
                <rect x="14" y="13" width="1" height="1" fill="#000"/>
                <rect x="17" y="12" width="1" height="1" fill="#FFFFFF"/>
                <rect x="17" y="13" width="1" height="1" fill="#000"/>
    
                <!-- peck -->
                <rect x="15.5" y="13" width="1" height="1" fill="#FFA500"/>
    
                <!-- Feet -->
                <rect x="13" y="22" width="1" height="1" fill="#FFA500"/>
                <rect x="14" y="22" width="1" height="1" fill="#FFA500"/>
                <rect x="17" y="22" width="1" height="1" fill="#FFA500"/>
                <rect x="18" y="22" width="1" height="1" fill="#FFA500"/>
            </svg>